<?xml version="1.0" encoding="utf-8"?>
<!-- Generator: Adobe Illustrator 16.0.0, SVG Export Plug-In . SVG Version: 6.00 Build 0)  -->
<!DOCTYPE svg PUBLIC "-//W3C//DTD SVG 1.1//EN" "http://www.w3.org/Graphics/SVG/1.1/DTD/svg11.dtd">
<svg version="1.1" id="Layer_3" xmlns="http://www.w3.org/2000/svg" xmlns:xlink="http://www.w3.org/1999/xlink" x="0px" y="0px"
	 width="126px" height="72px" viewBox="0 0 126 72" enable-background="new 0 0 126 72" xml:space="preserve">
<polygon fill="#F9F9F9" points="72.373,20.593 84.233,31.697 125.833,54.906 125.833,2.24 108.211,5.084 "/>
<polygon fill="#F7F7F7" points="67.85,22.549 84.265,31.697 72.373,20.593 "/>
<polygon fill="#F9F9F9" points="63.495,12.3 52.611,14.056 67.85,22.549 72.373,20.593 "/>
<polygon fill="#F7F7F7" points="108.241,5.084 63.495,12.3 72.373,20.593 "/>
<polygon fill="#F7F7F7" points="125.833,2.24 125.833,0 120.146,0 108.211,5.115 "/>
<polygon fill="#F9F9F9" points="67.817,22.549 0,51.862 0,75.5 125.833,75.5 125.833,70.587 84.214,31.697 "/>
<polygon fill="#F7F7F7" points="84.201,31.697 125.833,70.587 125.833,54.906 "/>
<polygon fill="#F7F7F7" points="52.579,14.056 0,22.53 0,51.862 67.806,22.549 "/>
<polygon fill="#F4F2F2" points="108.241,5.115 120.146,0 50.257,0 63.495,12.344 "/>
<polygon fill="#F4F2F2" points="27.287,0 0,0 0,22.53 52.579,14.087 "/>
<polygon fill="#F7F7F7" points="63.495,12.332 50.257,0 27.287,0 52.611,14.1 "/>
</svg>
